# xmcd
#
# Track frame offsets:
#	150
#	10767
#	28030
#	44055
#	59285
#	77225
#	89779
#	102363
#	120797
#	135664
#	147436
#	163157
#
# Disc length: 2392 seconds
#
# Revision: 1
# Processed by: cddbd v1.5.1PL0 Copyright (c) Steve Scherf et al.
# Submitted via: audiograbber 1.83.01
#
DISCID=a409560c
DTITLE=Chris McKenzie - The First
DYEAR=2002
DGENRE=Country
TTITLE0=Dance With The One
TTITLE1=He Thinks He큞l Keep Her
TTITLE2=In Another One큦 Eyes
TTITLE3=Just Like The Weather
TTITLE4=Life No. 9
TTITLE5=Lonesome Standard Time
TTITLE6=Passionate Kisses
TTITLE7=She큦 In Love With The Boy
TTITLE8=Someon Else큦 Star
TTITLE9=Stand By Your Man
TTITLE10=The Bugs
TTITLE11=Wild Angels
EXTD=
EXTT0=
EXTT1=
EXTT2=
EXTT3=
EXTT4=
EXTT5=
EXTT6=
EXTT7=
EXTT8=
EXTT9=
EXTT10=
EXTT11=
PLAYORDER=
